<?xml version="1.0" encoding="UTF-8" standalone="no"?>
<!-- Created with Inkscape (http://www.inkscape.org/) -->

<svg
   width="512"
   height="512"
   viewBox="0 0 135.46666 135.46667"
   version="1.1"
   id="svg1"
   inkscape:version="1.4.2 (f4327f4, 2025-05-13)"
   sodipodi:docname="edit_reaonly.svg"
   inkscape:export-filename="readonly.png"
   inkscape:export-xdpi="96"
   inkscape:export-ydpi="96"
   xmlns:inkscape="http://www.inkscape.org/namespaces/inkscape"
   xmlns:sodipodi="http://sodipodi.sourceforge.net/DTD/sodipodi-0.dtd"
   xmlns="http://www.w3.org/2000/svg"
   xmlns:svg="http://www.w3.org/2000/svg">
  <sodipodi:namedview
     id="namedview1"
     pagecolor="#ffffff"
     bordercolor="#000000"
     borderopacity="0.25"
     inkscape:showpageshadow="2"
     inkscape:pageopacity="0.0"
     inkscape:pagecheckerboard="true"
     inkscape:deskcolor="#d1d1d1"
     inkscape:document-units="mm"
     inkscape:zoom="1.4702524"
     inkscape:cx="303.0092"
     inkscape:cy="286.68547"
     inkscape:window-width="2560"
     inkscape:window-height="1369"
     inkscape:window-x="-8"
     inkscape:window-y="-8"
     inkscape:window-maximized="1"
     inkscape:current-layer="svg1"
     showgrid="false" />
  <defs
     id="defs1" />
  <g
     inkscape:groupmode="layer"
     id="layer2"
     inkscape:label="BG">
    <path
       style="fill:#536c5d;stroke-width:1.98185"
       d="m 35.394705,8.3090006 c 26.664921,0.171615 25.624012,0.04656 29.106442,3.4964104 2.417309,2.394726 3.392107,4.978858 3.695026,9.788866 l 0.274743,4.354698 h 27.294432 c 17.742142,0 28.234162,0.199328 29.977972,0.569818 3.42631,0.72794 6.78775,3.240053 8.30071,6.202783 l 1.18537,2.32109 -0.012,42.556088 c -0.009,40.159046 -0.0664,42.672656 -0.97858,44.642736 -1.23052,2.65738 -3.43988,4.84614 -6.12234,6.06515 -2.00402,0.91072 -4.94828,0.95883 -60.058863,0.947 -47.941091,-0.009 -58.3040836,-0.1365 -59.9930185,-0.73293 -2.5880305,-0.91389 -5.4437069,-3.58892 -6.703734,-6.27922 -0.93158514,-1.98906 -0.97752149,-4.51576 -0.97752149,-53.495853 0,-48.826413 0.0485282,-51.513907 0.97031819,-53.524376 C 2.5900585,12.524514 6.0893206,9.5468306 8.9432883,8.7626126 10.525479,8.3272266 18.098732,8.1975496 35.393967,8.3090006 Z"
       id="path6" />
  </g>
  <g
     id="g9"
     transform="matrix(2.4143893,0,0,2.4143893,-201.74672,-339.77993)"
     inkscape:label="readonly"
     style="display:inline">
    <path
       style="display:inline;fill:#000000;fill-opacity:1"
       d="m 105.85701,184.7094 c -5.73005,-1.47498 -11.519097,-5.30022 -15.624204,-10.32404 -0.892707,-1.09249 -1.565519,-2.13093 -1.495138,-2.30765 0.07038,-0.17672 0.922341,-1.24861 1.893243,-2.38197 3.323847,-3.88001 8.180315,-7.34531 12.468939,-8.89711 9.10084,-3.29307 17.98385,-1.34524 26.22937,5.75146 2.31787,1.99493 5.21201,5.47005 4.94106,5.93295 -0.10678,0.18243 -0.96138,1.25873 -1.89911,2.39178 -3.99889,4.83185 -9.51744,8.39782 -15.23715,9.84591 -3.60142,0.9118 -7.70686,0.90767 -11.27701,-0.0113 z"
       id="path4" />
    <path
       style="display:inline;fill:#ffffff;fill-opacity:1"
       d="m 115.16845,179.6101 c 3.54851,-1.74397 5.49364,-5.66045 4.70617,-9.47579 -0.42033,-2.03649 -1.02342,-3.16202 -2.42025,-4.51682 -1.7662,-1.71305 -3.34854,-2.32208 -6.04111,-2.32518 -1.9268,-0.002 -2.46349,0.10278 -3.74664,0.7329 -2.53319,1.244 -4.33365,3.71919 -4.70709,6.4711 -0.53107,3.91347 1.32184,7.37101 4.88186,9.10959 1.43859,0.70255 1.79846,0.76773 3.83646,0.69485 1.69514,-0.0606 2.55471,-0.23069 3.4906,-0.69065 z"
       id="path5" />
  </g>
  <g
     inkscape:label="edit"
     inkscape:groupmode="layer"
     id="layer1"
     style="display:none">
    <g
       id="g1"
       transform="matrix(-0.28640622,-1.0688826,1.0688826,-0.28640622,-0.02119371,172.61571)">
      <path
         style="fill:#ffffff;fill-opacity:1;stroke-width:0.52191"
         d="m 32.788911,97.16621 -8.89309,19.05664 2.540886,2.90387 3.720576,2.35937 19.147374,-8.98381 z"
         id="path10" />
      <path
         style="fill:#ffffff;fill-opacity:1;stroke-width:0.52191"
         d="m 87.236398,43.353956 -7.168913,7.350407 15.880516,16.243509 7.168919,-7.441166 z"
         id="path11" />
      <path
         style="fill:#000000;stroke-width:3.11706"
         d="m 24.005794,116.24323 c -0.193175,0.001 -0.346634,0.38607 -0.621652,1.13537 -0.322609,0.87902 -0.85011,2.65246 -1.171512,3.94058 -0.467345,1.8735 -0.336007,2.24936 0.652654,1.8796 0.679911,-0.25419 2.636037,-0.71896 4.348282,-1.03205 l 3.114807,-0.56769 -2.197804,-1.12269 c -1.208653,-0.61717 -2.638882,-1.92592 -3.17843,-2.90847 -0.489621,-0.89171 -0.7407,-1.32598 -0.946345,-1.32465 z"
         id="path9" />
      <path
         style="fill:#000000;stroke-width:3.11706"
         d="m 82.209347,48.608483 -24.681673,24.193421 -24.681685,24.191825 0.357322,4.206101 c 0.30469,3.58798 0.644394,4.27367 2.312007,4.6816 2.656635,0.64984 4.576557,2.66784 4.576747,4.80876 1.57e-4,1.60699 0.431457,1.77311 4.588145,1.77311 h 4.588151 L 73.915771,88.45433 98.561578,64.445364 94.598326,62.710444 C 89.865032,60.638728 86.538165,57.365081 84.044928,52.323217 Z"
         id="path8" />
      <path
         style="fill:#000000;stroke-width:3.11706"
         d="m 99.108169,33.953134 c -2.190505,-0.04063 -4.228712,1.480024 -7.813868,5.029811 l -5.139665,5.088673 1.132338,3.153379 c 1.583722,4.41058 5.347001,8.66732 9.600522,10.859521 1.988849,1.02503 4.392144,1.863729 5.340334,1.863729 2.43931,0 11.37902,-8.800172 11.37902,-11.201427 0,-4.274316 -4.13029,-9.686175 -10.02474,-13.135125 -1.79132,-1.048128 -3.15966,-1.634279 -4.473941,-1.658561 z"
         id="path7" />
    </g>
  </g>
</svg>
